<mxfile host="app.diagrams.net" modified="2022-08-02T08:04:29.838Z" agent="5.0 (Windows NT 10.0; Win64; x64) AppleWebKit/537.36 (KHTML, like Gecko) Chrome/103.0.0.0 Safari/537.36" etag="VGHxlqTOBPmeUeZPk71a" version="20.2.2" type="github" pages="3">
  <diagram id="Inc5CD8TiMSoGm5gabNw" name="框架图">
    <mxGraphModel dx="868" dy="620" grid="1" gridSize="10" guides="1" tooltips="1" connect="1" arrows="1" fold="1" page="1" pageScale="1" pageWidth="827" pageHeight="1169" math="0" shadow="0">
      <root>
        <mxCell id="0" />
        <mxCell id="1" parent="0" />
        <mxCell id="yZOYyDwGsRFCXUh7RQCU-1" value="" style="group" parent="1" vertex="1" connectable="0">
          <mxGeometry x="50" y="50" width="150" height="90" as="geometry" />
        </mxCell>
        <mxCell id="yZOYyDwGsRFCXUh7RQCU-2" value="规则管理" style="rounded=1;whiteSpace=wrap;html=1;fillColor=#ffe6cc;strokeColor=#d79b00;verticalAlign=top;" parent="yZOYyDwGsRFCXUh7RQCU-1" vertex="1">
          <mxGeometry width="150" height="90" as="geometry" />
        </mxCell>
        <mxCell id="yZOYyDwGsRFCXUh7RQCU-3" value="修改" style="rounded=0;whiteSpace=wrap;html=1;" parent="yZOYyDwGsRFCXUh7RQCU-1" vertex="1">
          <mxGeometry x="12.396086956521735" y="60.951708683473385" width="54.78260869565218" height="18.57142857142857" as="geometry" />
        </mxCell>
        <mxCell id="yZOYyDwGsRFCXUh7RQCU-4" value="查询" style="rounded=0;whiteSpace=wrap;html=1;" parent="yZOYyDwGsRFCXUh7RQCU-1" vertex="1">
          <mxGeometry x="82.8308695652174" y="60.951708683473385" width="54.78260869565218" height="18.57142857142857" as="geometry" />
        </mxCell>
        <mxCell id="yZOYyDwGsRFCXUh7RQCU-5" value="新增" style="rounded=0;whiteSpace=wrap;html=1;" parent="yZOYyDwGsRFCXUh7RQCU-1" vertex="1">
          <mxGeometry x="12.396086956521735" y="29.99932773109242" width="54.78260869565218" height="18.57142857142857" as="geometry" />
        </mxCell>
        <mxCell id="yZOYyDwGsRFCXUh7RQCU-6" value="删除" style="rounded=0;whiteSpace=wrap;html=1;" parent="yZOYyDwGsRFCXUh7RQCU-1" vertex="1">
          <mxGeometry x="82.8308695652174" y="29.99932773109242" width="54.78260869565218" height="18.57142857142857" as="geometry" />
        </mxCell>
        <mxCell id="yZOYyDwGsRFCXUh7RQCU-7" value="" style="group" parent="1" vertex="1" connectable="0">
          <mxGeometry x="414" y="50" width="150" height="100" as="geometry" />
        </mxCell>
        <mxCell id="yZOYyDwGsRFCXUh7RQCU-8" value="数据融合更新" style="rounded=1;whiteSpace=wrap;html=1;fillColor=#B9E0A5;verticalAlign=top;" parent="yZOYyDwGsRFCXUh7RQCU-7" vertex="1">
          <mxGeometry width="150" height="100" as="geometry" />
        </mxCell>
        <mxCell id="SwMmMOj1wZBfgNss2GQy-7" value="更新频率" style="rounded=0;whiteSpace=wrap;html=1;" parent="yZOYyDwGsRFCXUh7RQCU-7" vertex="1">
          <mxGeometry x="16.0008695652175" y="70.00482668067221" width="54.78260869565218" height="22.053571428571423" as="geometry" />
        </mxCell>
        <mxCell id="yZOYyDwGsRFCXUh7RQCU-10" value="更新流程" style="rounded=0;whiteSpace=wrap;html=1;" parent="yZOYyDwGsRFCXUh7RQCU-7" vertex="1">
          <mxGeometry x="86.0008695652175" y="38.97482668067221" width="54.78260869565218" height="22.053571428571423" as="geometry" />
        </mxCell>
        <mxCell id="yZOYyDwGsRFCXUh7RQCU-16" value="更新机制" style="rounded=0;whiteSpace=wrap;html=1;" parent="yZOYyDwGsRFCXUh7RQCU-7" vertex="1">
          <mxGeometry x="15.996086956521708" y="38.97482668067224" width="54.78260869565218" height="22.053571428571423" as="geometry" />
        </mxCell>
        <mxCell id="yZOYyDwGsRFCXUh7RQCU-17" value="" style="group" parent="1" vertex="1" connectable="0">
          <mxGeometry x="60" y="220" width="200" height="140" as="geometry" />
        </mxCell>
        <mxCell id="yZOYyDwGsRFCXUh7RQCU-18" value="数据质量检查" style="rounded=1;whiteSpace=wrap;html=1;fillColor=#B9E0A5;verticalAlign=top;" parent="yZOYyDwGsRFCXUh7RQCU-17" vertex="1">
          <mxGeometry width="200" height="140" as="geometry" />
        </mxCell>
        <mxCell id="yZOYyDwGsRFCXUh7RQCU-19" value="拓扑检查" style="rounded=0;html=1;imageHeight=24;imageWidth=28;" parent="yZOYyDwGsRFCXUh7RQCU-17" vertex="1">
          <mxGeometry x="12.399999999999977" y="41.22" width="82.6" height="18.57" as="geometry" />
        </mxCell>
        <mxCell id="yZOYyDwGsRFCXUh7RQCU-20" value="属性检查" style="rounded=0;html=1;imageHeight=24;imageWidth=28;" parent="yZOYyDwGsRFCXUh7RQCU-17" vertex="1">
          <mxGeometry x="12.399999999999977" y="89.49" width="82.6" height="18.57" as="geometry" />
        </mxCell>
        <mxCell id="yZOYyDwGsRFCXUh7RQCU-21" value="..." style="rounded=0;html=1;imageHeight=24;imageWidth=28;" parent="yZOYyDwGsRFCXUh7RQCU-17" vertex="1">
          <mxGeometry x="105" y="89.49000000000001" width="82.6" height="18.57" as="geometry" />
        </mxCell>
        <mxCell id="yZOYyDwGsRFCXUh7RQCU-24" value="几何检查" style="rounded=0;html=1;imageHeight=24;imageWidth=28;" parent="yZOYyDwGsRFCXUh7RQCU-17" vertex="1">
          <mxGeometry x="105" y="41.219999999999985" width="82.6" height="18.57" as="geometry" />
        </mxCell>
        <mxCell id="yZOYyDwGsRFCXUh7RQCU-29" value="" style="group;fillColor=default;fillStyle=hatch;" parent="1" vertex="1" connectable="0">
          <mxGeometry x="230" y="50" width="150" height="90" as="geometry" />
        </mxCell>
        <mxCell id="yZOYyDwGsRFCXUh7RQCU-30" value="标准管理" style="rounded=1;whiteSpace=wrap;html=1;fillColor=#ADB6FF;strokeColor=#d79b00;verticalAlign=top;" parent="yZOYyDwGsRFCXUh7RQCU-29" vertex="1">
          <mxGeometry width="150" height="90" as="geometry" />
        </mxCell>
        <mxCell id="yZOYyDwGsRFCXUh7RQCU-31" value="修改" style="rounded=0;whiteSpace=wrap;html=1;" parent="yZOYyDwGsRFCXUh7RQCU-29" vertex="1">
          <mxGeometry x="12.396086956521735" y="60.951708683473385" width="54.78260869565218" height="18.57142857142857" as="geometry" />
        </mxCell>
        <mxCell id="yZOYyDwGsRFCXUh7RQCU-32" value="查询" style="rounded=0;whiteSpace=wrap;html=1;" parent="yZOYyDwGsRFCXUh7RQCU-29" vertex="1">
          <mxGeometry x="82.8308695652174" y="60.951708683473385" width="54.78260869565218" height="18.57142857142857" as="geometry" />
        </mxCell>
        <mxCell id="yZOYyDwGsRFCXUh7RQCU-33" value="新增" style="rounded=0;whiteSpace=wrap;html=1;" parent="yZOYyDwGsRFCXUh7RQCU-29" vertex="1">
          <mxGeometry x="12.396086956521735" y="29.99932773109242" width="54.78260869565218" height="18.57142857142857" as="geometry" />
        </mxCell>
        <mxCell id="yZOYyDwGsRFCXUh7RQCU-34" value="删除" style="rounded=0;whiteSpace=wrap;html=1;" parent="yZOYyDwGsRFCXUh7RQCU-29" vertex="1">
          <mxGeometry x="82.8308695652174" y="29.99932773109242" width="54.78260869565218" height="18.57142857142857" as="geometry" />
        </mxCell>
        <mxCell id="SwMmMOj1wZBfgNss2GQy-12" value="" style="group" parent="1" vertex="1" connectable="0">
          <mxGeometry x="330" y="220" width="200" height="140" as="geometry" />
        </mxCell>
        <mxCell id="SwMmMOj1wZBfgNss2GQy-13" value="质量监控" style="rounded=1;whiteSpace=wrap;html=1;fillColor=#B9E0A5;verticalAlign=top;" parent="SwMmMOj1wZBfgNss2GQy-12" vertex="1">
          <mxGeometry width="200" height="140" as="geometry" />
        </mxCell>
        <mxCell id="SwMmMOj1wZBfgNss2GQy-14" value="质检结果" style="rounded=0;html=1;imageHeight=24;imageWidth=28;" parent="SwMmMOj1wZBfgNss2GQy-12" vertex="1">
          <mxGeometry x="12.399999999999977" y="41.22" width="82.6" height="18.57" as="geometry" />
        </mxCell>
      </root>
    </mxGraphModel>
  </diagram>
  <diagram id="5Y488ag0M3OIHIzRHHl_" name="第 2 页">
    <mxGraphModel dx="868" dy="620" grid="1" gridSize="10" guides="1" tooltips="1" connect="1" arrows="1" fold="1" page="1" pageScale="1" pageWidth="827" pageHeight="1169" math="0" shadow="0">
      <root>
        <mxCell id="0" />
        <mxCell id="1" parent="0" />
        <mxCell id="ucizx-cwFNvGZm101bCT-1" value="" style="group" parent="1" vertex="1" connectable="0">
          <mxGeometry x="50" y="50" width="150" height="90" as="geometry" />
        </mxCell>
        <mxCell id="ucizx-cwFNvGZm101bCT-2" value="规则管理" style="rounded=1;whiteSpace=wrap;html=1;fillColor=#ffe6cc;strokeColor=#d79b00;verticalAlign=top;" parent="ucizx-cwFNvGZm101bCT-1" vertex="1">
          <mxGeometry width="150" height="90" as="geometry" />
        </mxCell>
        <mxCell id="ucizx-cwFNvGZm101bCT-3" value="修改" style="rounded=0;whiteSpace=wrap;html=1;" parent="ucizx-cwFNvGZm101bCT-1" vertex="1">
          <mxGeometry x="12.396086956521735" y="60.951708683473385" width="54.78260869565218" height="18.57142857142857" as="geometry" />
        </mxCell>
        <mxCell id="ucizx-cwFNvGZm101bCT-4" value="查询" style="rounded=0;whiteSpace=wrap;html=1;" parent="ucizx-cwFNvGZm101bCT-1" vertex="1">
          <mxGeometry x="82.8308695652174" y="60.951708683473385" width="54.78260869565218" height="18.57142857142857" as="geometry" />
        </mxCell>
        <mxCell id="ucizx-cwFNvGZm101bCT-5" value="新增" style="rounded=0;whiteSpace=wrap;html=1;" parent="ucizx-cwFNvGZm101bCT-1" vertex="1">
          <mxGeometry x="12.396086956521735" y="29.99932773109242" width="54.78260869565218" height="18.57142857142857" as="geometry" />
        </mxCell>
        <mxCell id="ucizx-cwFNvGZm101bCT-6" value="删除" style="rounded=0;whiteSpace=wrap;html=1;" parent="ucizx-cwFNvGZm101bCT-1" vertex="1">
          <mxGeometry x="82.8308695652174" y="29.99932773109242" width="54.78260869565218" height="18.57142857142857" as="geometry" />
        </mxCell>
        <mxCell id="ucizx-cwFNvGZm101bCT-7" value="" style="group;fillColor=default;fillStyle=hatch;" parent="1" vertex="1" connectable="0">
          <mxGeometry x="230" y="50" width="180" height="90" as="geometry" />
        </mxCell>
        <mxCell id="ucizx-cwFNvGZm101bCT-8" value="标准管理" style="rounded=1;whiteSpace=wrap;html=1;fillColor=#ADB6FF;strokeColor=#d79b00;verticalAlign=top;" parent="ucizx-cwFNvGZm101bCT-7" vertex="1">
          <mxGeometry x="-14.86" width="194.86" height="90" as="geometry" />
        </mxCell>
        <mxCell id="ucizx-cwFNvGZm101bCT-9" value="从主题表拾取" style="rounded=0;whiteSpace=wrap;html=1;" parent="ucizx-cwFNvGZm101bCT-7" vertex="1">
          <mxGeometry x="-1.7763568394002505e-15" y="60.95249999999999" width="81.11999999999999" height="18.570000000000004" as="geometry" />
        </mxCell>
        <mxCell id="ucizx-cwFNvGZm101bCT-10" value="..." style="rounded=0;whiteSpace=wrap;html=1;" parent="ucizx-cwFNvGZm101bCT-7" vertex="1">
          <mxGeometry x="99.39704347826087" y="60.951708683473385" width="65.73913043478261" height="18.571428571428573" as="geometry" />
        </mxCell>
        <mxCell id="ucizx-cwFNvGZm101bCT-11" value="增删改查" style="rounded=0;whiteSpace=wrap;html=1;" parent="ucizx-cwFNvGZm101bCT-7" vertex="1">
          <mxGeometry y="30.000000000000004" width="80" height="18.570000000000004" as="geometry" />
        </mxCell>
        <mxCell id="ucizx-cwFNvGZm101bCT-12" value="导入标准" style="rounded=0;whiteSpace=wrap;html=1;" parent="ucizx-cwFNvGZm101bCT-7" vertex="1">
          <mxGeometry x="99.39704347826087" y="29.99932773109243" width="65.73913043478261" height="18.571428571428573" as="geometry" />
        </mxCell>
        <mxCell id="ucizx-cwFNvGZm101bCT-13" value="" style="group;fillColor=default;fillStyle=hatch;" parent="1" vertex="1" connectable="0">
          <mxGeometry x="50" y="200" width="150" height="90" as="geometry" />
        </mxCell>
        <mxCell id="ucizx-cwFNvGZm101bCT-14" value="质检任务管理" style="rounded=1;whiteSpace=wrap;html=1;fillColor=#D4E1F5;strokeColor=#d79b00;verticalAlign=top;" parent="ucizx-cwFNvGZm101bCT-13" vertex="1">
          <mxGeometry width="150" height="90" as="geometry" />
        </mxCell>
        <mxCell id="ucizx-cwFNvGZm101bCT-15" value="..." style="rounded=0;whiteSpace=wrap;html=1;" parent="ucizx-cwFNvGZm101bCT-13" vertex="1">
          <mxGeometry x="12.396086956521735" y="60.951708683473385" width="54.78260869565218" height="18.57142857142857" as="geometry" />
        </mxCell>
        <mxCell id="ucizx-cwFNvGZm101bCT-17" value="质检任务" style="rounded=0;whiteSpace=wrap;html=1;" parent="ucizx-cwFNvGZm101bCT-13" vertex="1">
          <mxGeometry x="12.396086956521735" y="29.99932773109242" width="54.78260869565218" height="18.57142857142857" as="geometry" />
        </mxCell>
        <mxCell id="ucizx-cwFNvGZm101bCT-18" value="质检日志" style="rounded=0;whiteSpace=wrap;html=1;" parent="ucizx-cwFNvGZm101bCT-13" vertex="1">
          <mxGeometry x="82.8308695652174" y="29.99932773109242" width="54.78260869565218" height="18.57142857142857" as="geometry" />
        </mxCell>
        <mxCell id="ucizx-cwFNvGZm101bCT-19" value="" style="group;fillColor=default;fillStyle=hatch;" parent="ucizx-cwFNvGZm101bCT-13" vertex="1" connectable="0">
          <mxGeometry width="150" height="90" as="geometry" />
        </mxCell>
        <mxCell id="ucizx-cwFNvGZm101bCT-20" value="质检任务管理" style="rounded=1;whiteSpace=wrap;html=1;fillColor=#D4E1F5;strokeColor=#d79b00;verticalAlign=top;" parent="ucizx-cwFNvGZm101bCT-19" vertex="1">
          <mxGeometry width="150" height="90" as="geometry" />
        </mxCell>
        <mxCell id="ucizx-cwFNvGZm101bCT-21" value="..." style="rounded=0;whiteSpace=wrap;html=1;" parent="ucizx-cwFNvGZm101bCT-19" vertex="1">
          <mxGeometry x="12.396086956521735" y="60.951708683473385" width="54.78260869565218" height="18.57142857142857" as="geometry" />
        </mxCell>
        <mxCell id="ucizx-cwFNvGZm101bCT-22" value="质检任务" style="rounded=0;whiteSpace=wrap;html=1;" parent="ucizx-cwFNvGZm101bCT-19" vertex="1">
          <mxGeometry x="12.396086956521735" y="29.99932773109242" width="54.78260869565218" height="18.57142857142857" as="geometry" />
        </mxCell>
        <mxCell id="ucizx-cwFNvGZm101bCT-23" value="质检日志" style="rounded=0;whiteSpace=wrap;html=1;" parent="ucizx-cwFNvGZm101bCT-19" vertex="1">
          <mxGeometry x="82.8308695652174" y="29.99932773109242" width="54.78260869565218" height="18.57142857142857" as="geometry" />
        </mxCell>
        <mxCell id="ucizx-cwFNvGZm101bCT-24" value="" style="group;fillColor=default;fillStyle=hatch;" parent="1" vertex="1" connectable="0">
          <mxGeometry x="50" y="350" width="150" height="90" as="geometry" />
        </mxCell>
        <mxCell id="ucizx-cwFNvGZm101bCT-25" value="质量监控管理" style="rounded=1;whiteSpace=wrap;html=1;fillColor=#33FF33;strokeColor=#d79b00;verticalAlign=top;" parent="ucizx-cwFNvGZm101bCT-24" vertex="1">
          <mxGeometry width="150" height="90" as="geometry" />
        </mxCell>
        <mxCell id="ucizx-cwFNvGZm101bCT-26" value="..." style="rounded=0;whiteSpace=wrap;html=1;" parent="ucizx-cwFNvGZm101bCT-24" vertex="1">
          <mxGeometry x="79.99608695652174" y="30.001708683473385" width="54.78260869565218" height="18.57142857142857" as="geometry" />
        </mxCell>
        <mxCell id="ucizx-cwFNvGZm101bCT-27" value="质检结果" style="rounded=0;whiteSpace=wrap;html=1;" parent="ucizx-cwFNvGZm101bCT-24" vertex="1">
          <mxGeometry x="12.396086956521735" y="29.99932773109242" width="54.78260869565218" height="18.57142857142857" as="geometry" />
        </mxCell>
      </root>
    </mxGraphModel>
  </diagram>
  <diagram id="uK2SGftdLwiaNWVEryMF" name="业务流程图">
    <mxGraphModel dx="868" dy="620" grid="1" gridSize="10" guides="1" tooltips="1" connect="1" arrows="1" fold="1" page="1" pageScale="1" pageWidth="827" pageHeight="1169" math="0" shadow="0">
      <root>
        <mxCell id="0" />
        <mxCell id="1" parent="0" />
        <mxCell id="IVj9JVnUh1Tp0sDhJ2Lc-1" style="edgeStyle=orthogonalEdgeStyle;rounded=0;orthogonalLoop=1;jettySize=auto;html=1;endArrow=block;endFill=1;" edge="1" parent="1" source="IVj9JVnUh1Tp0sDhJ2Lc-2" target="IVj9JVnUh1Tp0sDhJ2Lc-4">
          <mxGeometry relative="1" as="geometry" />
        </mxCell>
        <mxCell id="IVj9JVnUh1Tp0sDhJ2Lc-2" value="S" style="ellipse;whiteSpace=wrap;html=1;aspect=fixed;fillColor=#FFFFFF;" vertex="1" parent="1">
          <mxGeometry x="35" y="50" width="30" height="30" as="geometry" />
        </mxCell>
        <mxCell id="IVj9JVnUh1Tp0sDhJ2Lc-3" style="edgeStyle=orthogonalEdgeStyle;rounded=0;orthogonalLoop=1;jettySize=auto;html=1;endArrow=block;endFill=1;" edge="1" parent="1" source="IVj9JVnUh1Tp0sDhJ2Lc-4" target="IVj9JVnUh1Tp0sDhJ2Lc-13">
          <mxGeometry relative="1" as="geometry" />
        </mxCell>
        <mxCell id="IVj9JVnUh1Tp0sDhJ2Lc-4" value="导入" style="rounded=0;whiteSpace=wrap;html=1;fillColor=#FFFFFF;" vertex="1" parent="1">
          <mxGeometry x="20" y="130" width="60" height="30" as="geometry" />
        </mxCell>
        <mxCell id="IVj9JVnUh1Tp0sDhJ2Lc-5" style="edgeStyle=orthogonalEdgeStyle;rounded=0;orthogonalLoop=1;jettySize=auto;html=1;entryX=0.5;entryY=0;entryDx=0;entryDy=0;endArrow=classic;endFill=1;exitX=0.5;exitY=0;exitDx=0;exitDy=0;" edge="1" parent="1" source="IVj9JVnUh1Tp0sDhJ2Lc-8" target="IVj9JVnUh1Tp0sDhJ2Lc-13">
          <mxGeometry relative="1" as="geometry">
            <Array as="points">
              <mxPoint x="250" y="90" />
              <mxPoint x="150" y="90" />
            </Array>
          </mxGeometry>
        </mxCell>
        <mxCell id="IVj9JVnUh1Tp0sDhJ2Lc-6" value="失败" style="edgeLabel;html=1;align=center;verticalAlign=middle;resizable=0;points=[];" vertex="1" connectable="0" parent="IVj9JVnUh1Tp0sDhJ2Lc-5">
          <mxGeometry x="0.1437" relative="1" as="geometry">
            <mxPoint x="15" as="offset" />
          </mxGeometry>
        </mxCell>
        <mxCell id="IVj9JVnUh1Tp0sDhJ2Lc-7" style="edgeStyle=orthogonalEdgeStyle;rounded=0;orthogonalLoop=1;jettySize=auto;html=1;endArrow=classic;endFill=1;" edge="1" parent="1" source="IVj9JVnUh1Tp0sDhJ2Lc-8" target="IVj9JVnUh1Tp0sDhJ2Lc-11">
          <mxGeometry relative="1" as="geometry" />
        </mxCell>
        <mxCell id="IVj9JVnUh1Tp0sDhJ2Lc-8" value="校验格式" style="rhombus;whiteSpace=wrap;html=1;fillColor=#FFFFFF;" vertex="1" parent="1">
          <mxGeometry x="210" y="125" width="80" height="40" as="geometry" />
        </mxCell>
        <mxCell id="IVj9JVnUh1Tp0sDhJ2Lc-9" style="edgeStyle=orthogonalEdgeStyle;rounded=0;orthogonalLoop=1;jettySize=auto;html=1;endArrow=classic;endFill=1;exitX=1;exitY=0.5;exitDx=0;exitDy=0;entryX=0;entryY=0.5;entryDx=0;entryDy=0;" edge="1" parent="1" source="IVj9JVnUh1Tp0sDhJ2Lc-22" target="IVj9JVnUh1Tp0sDhJ2Lc-24">
          <mxGeometry relative="1" as="geometry" />
        </mxCell>
        <mxCell id="IVj9JVnUh1Tp0sDhJ2Lc-10" style="edgeStyle=orthogonalEdgeStyle;rounded=0;orthogonalLoop=1;jettySize=auto;html=1;endArrow=none;endFill=0;" edge="1" parent="1" source="IVj9JVnUh1Tp0sDhJ2Lc-11" target="IVj9JVnUh1Tp0sDhJ2Lc-22">
          <mxGeometry relative="1" as="geometry" />
        </mxCell>
        <mxCell id="IVj9JVnUh1Tp0sDhJ2Lc-11" value="存储文件" style="rounded=0;whiteSpace=wrap;html=1;fillColor=#FFFFFF;" vertex="1" parent="1">
          <mxGeometry x="324" y="130" width="60" height="30" as="geometry" />
        </mxCell>
        <mxCell id="IVj9JVnUh1Tp0sDhJ2Lc-12" style="edgeStyle=orthogonalEdgeStyle;rounded=0;orthogonalLoop=1;jettySize=auto;html=1;endArrow=none;endFill=0;" edge="1" parent="1" source="IVj9JVnUh1Tp0sDhJ2Lc-13" target="IVj9JVnUh1Tp0sDhJ2Lc-8">
          <mxGeometry relative="1" as="geometry" />
        </mxCell>
        <mxCell id="IVj9JVnUh1Tp0sDhJ2Lc-13" value="选择文件" style="rounded=0;whiteSpace=wrap;html=1;fillColor=#FFFFFF;" vertex="1" parent="1">
          <mxGeometry x="120" y="130" width="60" height="30" as="geometry" />
        </mxCell>
        <mxCell id="IVj9JVnUh1Tp0sDhJ2Lc-14" style="edgeStyle=orthogonalEdgeStyle;rounded=0;orthogonalLoop=1;jettySize=auto;html=1;endArrow=classic;endFill=1;" edge="1" parent="1" source="IVj9JVnUh1Tp0sDhJ2Lc-15" target="IVj9JVnUh1Tp0sDhJ2Lc-30">
          <mxGeometry relative="1" as="geometry">
            <Array as="points">
              <mxPoint x="450" y="345" />
            </Array>
          </mxGeometry>
        </mxCell>
        <mxCell id="IVj9JVnUh1Tp0sDhJ2Lc-15" value="抛出异常" style="rounded=0;whiteSpace=wrap;html=1;fillColor=#FFFFFF;" vertex="1" parent="1">
          <mxGeometry x="420" y="270" width="60" height="30" as="geometry" />
        </mxCell>
        <mxCell id="IVj9JVnUh1Tp0sDhJ2Lc-16" style="edgeStyle=orthogonalEdgeStyle;rounded=0;orthogonalLoop=1;jettySize=auto;html=1;entryX=0.5;entryY=0;entryDx=0;entryDy=0;endArrow=classic;endFill=1;" edge="1" parent="1" source="IVj9JVnUh1Tp0sDhJ2Lc-17" target="IVj9JVnUh1Tp0sDhJ2Lc-30">
          <mxGeometry relative="1" as="geometry">
            <Array as="points">
              <mxPoint x="540" y="345" />
              <mxPoint x="775" y="345" />
            </Array>
          </mxGeometry>
        </mxCell>
        <mxCell id="IVj9JVnUh1Tp0sDhJ2Lc-17" value="抛出异常" style="rounded=0;whiteSpace=wrap;html=1;fillColor=#FFFFFF;" vertex="1" parent="1">
          <mxGeometry x="510" y="270" width="60" height="30" as="geometry" />
        </mxCell>
        <mxCell id="IVj9JVnUh1Tp0sDhJ2Lc-18" style="edgeStyle=orthogonalEdgeStyle;rounded=0;orthogonalLoop=1;jettySize=auto;html=1;endArrow=classic;endFill=1;" edge="1" parent="1" source="IVj9JVnUh1Tp0sDhJ2Lc-19" target="IVj9JVnUh1Tp0sDhJ2Lc-30">
          <mxGeometry relative="1" as="geometry">
            <Array as="points">
              <mxPoint x="775" y="300" />
              <mxPoint x="775" y="300" />
            </Array>
          </mxGeometry>
        </mxCell>
        <mxCell id="IVj9JVnUh1Tp0sDhJ2Lc-19" value="正常返回" style="rounded=0;whiteSpace=wrap;html=1;fillColor=#FFFFFF;" vertex="1" parent="1">
          <mxGeometry x="740" y="250" width="70" height="30" as="geometry" />
        </mxCell>
        <mxCell id="IVj9JVnUh1Tp0sDhJ2Lc-20" value="" style="edgeStyle=orthogonalEdgeStyle;rounded=0;orthogonalLoop=1;jettySize=auto;html=1;endArrow=classic;endFill=1;" edge="1" parent="1" source="IVj9JVnUh1Tp0sDhJ2Lc-22" target="IVj9JVnUh1Tp0sDhJ2Lc-15">
          <mxGeometry relative="1" as="geometry">
            <mxPoint x="380" y="210" as="targetPoint" />
            <Array as="points">
              <mxPoint x="450" y="215" />
            </Array>
          </mxGeometry>
        </mxCell>
        <mxCell id="IVj9JVnUh1Tp0sDhJ2Lc-21" value="失败" style="edgeLabel;html=1;align=center;verticalAlign=middle;resizable=0;points=[];" vertex="1" connectable="0" parent="IVj9JVnUh1Tp0sDhJ2Lc-20">
          <mxGeometry x="0.2021" y="2" relative="1" as="geometry">
            <mxPoint x="-2" y="-2" as="offset" />
          </mxGeometry>
        </mxCell>
        <mxCell id="IVj9JVnUh1Tp0sDhJ2Lc-22" value="保存文件" style="rhombus;whiteSpace=wrap;html=1;fillColor=#FFFFFF;" vertex="1" parent="1">
          <mxGeometry x="410" y="125" width="80" height="40" as="geometry" />
        </mxCell>
        <mxCell id="IVj9JVnUh1Tp0sDhJ2Lc-23" style="edgeStyle=orthogonalEdgeStyle;rounded=0;orthogonalLoop=1;jettySize=auto;html=1;endArrow=none;endFill=0;" edge="1" parent="1" source="IVj9JVnUh1Tp0sDhJ2Lc-24" target="IVj9JVnUh1Tp0sDhJ2Lc-29">
          <mxGeometry relative="1" as="geometry" />
        </mxCell>
        <mxCell id="IVj9JVnUh1Tp0sDhJ2Lc-24" value="解析文件" style="rounded=0;whiteSpace=wrap;html=1;fillColor=#FFFFFF;" vertex="1" parent="1">
          <mxGeometry x="530" y="130" width="60" height="30" as="geometry" />
        </mxCell>
        <mxCell id="IVj9JVnUh1Tp0sDhJ2Lc-25" style="edgeStyle=orthogonalEdgeStyle;rounded=0;orthogonalLoop=1;jettySize=auto;html=1;entryX=0.5;entryY=0;entryDx=0;entryDy=0;endArrow=none;endFill=0;" edge="1" parent="1" source="IVj9JVnUh1Tp0sDhJ2Lc-26" target="IVj9JVnUh1Tp0sDhJ2Lc-34">
          <mxGeometry relative="1" as="geometry" />
        </mxCell>
        <mxCell id="IVj9JVnUh1Tp0sDhJ2Lc-26" value="存入数据库" style="rounded=0;whiteSpace=wrap;html=1;fillColor=#FFFFFF;" vertex="1" parent="1">
          <mxGeometry x="740" y="130" width="70" height="30" as="geometry" />
        </mxCell>
        <mxCell id="IVj9JVnUh1Tp0sDhJ2Lc-27" value="失败" style="edgeStyle=orthogonalEdgeStyle;rounded=0;orthogonalLoop=1;jettySize=auto;html=1;endArrow=classic;endFill=1;entryX=0.5;entryY=0;entryDx=0;entryDy=0;exitX=0.5;exitY=1;exitDx=0;exitDy=0;" edge="1" parent="1" source="IVj9JVnUh1Tp0sDhJ2Lc-29" target="IVj9JVnUh1Tp0sDhJ2Lc-17">
          <mxGeometry x="0.6279" relative="1" as="geometry">
            <mxPoint x="550" y="350" as="targetPoint" />
            <Array as="points">
              <mxPoint x="650" y="190" />
              <mxPoint x="540" y="190" />
            </Array>
            <mxPoint as="offset" />
          </mxGeometry>
        </mxCell>
        <mxCell id="IVj9JVnUh1Tp0sDhJ2Lc-28" style="edgeStyle=orthogonalEdgeStyle;rounded=0;orthogonalLoop=1;jettySize=auto;html=1;entryX=0;entryY=0.5;entryDx=0;entryDy=0;endArrow=classic;endFill=1;" edge="1" parent="1" source="IVj9JVnUh1Tp0sDhJ2Lc-29" target="IVj9JVnUh1Tp0sDhJ2Lc-26">
          <mxGeometry relative="1" as="geometry" />
        </mxCell>
        <mxCell id="IVj9JVnUh1Tp0sDhJ2Lc-29" value="校验内容" style="rhombus;whiteSpace=wrap;html=1;fillColor=#FFFFFF;" vertex="1" parent="1">
          <mxGeometry x="610" y="125" width="80" height="40" as="geometry" />
        </mxCell>
        <mxCell id="IVj9JVnUh1Tp0sDhJ2Lc-30" value="E" style="ellipse;whiteSpace=wrap;html=1;aspect=fixed;fillColor=#FFFFFF;" vertex="1" parent="1">
          <mxGeometry x="760" y="330" width="30" height="30" as="geometry" />
        </mxCell>
        <mxCell id="IVj9JVnUh1Tp0sDhJ2Lc-31" style="edgeStyle=orthogonalEdgeStyle;rounded=0;orthogonalLoop=1;jettySize=auto;html=1;entryX=0.5;entryY=0;entryDx=0;entryDy=0;endArrow=classic;endFill=1;" edge="1" parent="1" source="IVj9JVnUh1Tp0sDhJ2Lc-34" target="IVj9JVnUh1Tp0sDhJ2Lc-36">
          <mxGeometry relative="1" as="geometry" />
        </mxCell>
        <mxCell id="IVj9JVnUh1Tp0sDhJ2Lc-32" value="失败" style="edgeLabel;html=1;align=center;verticalAlign=middle;resizable=0;points=[];" vertex="1" connectable="0" parent="IVj9JVnUh1Tp0sDhJ2Lc-31">
          <mxGeometry x="0.4448" y="1" relative="1" as="geometry">
            <mxPoint x="-1" y="6" as="offset" />
          </mxGeometry>
        </mxCell>
        <mxCell id="IVj9JVnUh1Tp0sDhJ2Lc-33" style="edgeStyle=orthogonalEdgeStyle;rounded=0;orthogonalLoop=1;jettySize=auto;html=1;endArrow=classicThin;endFill=1;" edge="1" parent="1" source="IVj9JVnUh1Tp0sDhJ2Lc-34" target="IVj9JVnUh1Tp0sDhJ2Lc-19">
          <mxGeometry relative="1" as="geometry" />
        </mxCell>
        <mxCell id="IVj9JVnUh1Tp0sDhJ2Lc-34" value="存入数据库" style="rhombus;whiteSpace=wrap;html=1;fillColor=#FFFFFF;" vertex="1" parent="1">
          <mxGeometry x="735" y="190" width="80" height="40" as="geometry" />
        </mxCell>
        <mxCell id="IVj9JVnUh1Tp0sDhJ2Lc-35" style="edgeStyle=orthogonalEdgeStyle;rounded=0;orthogonalLoop=1;jettySize=auto;html=1;entryX=0;entryY=0.5;entryDx=0;entryDy=0;endArrow=classic;endFill=1;" edge="1" parent="1" source="IVj9JVnUh1Tp0sDhJ2Lc-36" target="IVj9JVnUh1Tp0sDhJ2Lc-30">
          <mxGeometry relative="1" as="geometry">
            <Array as="points">
              <mxPoint x="630" y="345" />
            </Array>
          </mxGeometry>
        </mxCell>
        <mxCell id="IVj9JVnUh1Tp0sDhJ2Lc-36" value="抛出异常" style="rounded=0;whiteSpace=wrap;html=1;fillColor=#FFFFFF;" vertex="1" parent="1">
          <mxGeometry x="600" y="270" width="60" height="30" as="geometry" />
        </mxCell>
      </root>
    </mxGraphModel>
  </diagram>
</mxfile>
